<svg width="30" height="30" viewBox="0 0 30 30" xmlns="http://www.w3.org/2000/svg"><g fill-rule="nonzero" fill="none"><path d="M2.5 0h25C28.875 0 30 1.125 30 2.5v25c0 1.375-1.125 2.5-2.5 2.5h-25A2.507 2.507 0 0 1 0 27.5v-25C0 1.125 1.125 0 2.5 0z" fill="#AAA"/><g transform="translate(5 5)" fill="#F3F1ED"><path d="M14.375 0H5.75C2.5 0 0 2.5 0 5.625v8.625c0 3.125 2.5 5.625 5.625 5.625h8.625c3.125 0 5.625-2.5 5.625-5.625V5.625C20 2.5 17.5 0 14.375 0zm3.75 14.375c0 2.125-1.625 3.75-3.75 3.75h-8.75c-2.125 0-3.75-1.625-3.75-3.75v-8.75c0-2.125 1.625-3.75 3.75-3.75h8.75c2.125 0 3.75 1.625 3.75 3.75v8.75z"/><path d="M10 4.75c-2.875 0-5.25 2.375-5.25 5.25s2.375 5.25 5.25 5.25 5.25-2.375 5.25-5.25S12.875 4.75 10 4.75zm0 8.625A3.361 3.361 0 0 1 6.625 10c0-1.875 1.5-3.375 3.375-3.375s3.375 1.5 3.375 3.375-1.5 3.375-3.375 3.375z"/><circle cx="15.375" cy="4.625" r="1.25"/></g></g></svg>
