<svg width="52" height="27" viewBox="0 0 52 27" xmlns="http://www.w3.org/2000/svg"><title>yandex_ru</title><path d="M6.06 1.634V23H4.475V1.634H.005v-1.3h10.556v1.3H6.06zm8.274 20.478c.74 0 1.368-.306 1.886-.919.517-.613.924-1.352 1.22-2.219v-4.406h-1.712c-1.331 0-2.314.317-2.948.95-.634.635-.95 1.65-.95 3.044 0 1.141.226 2.018.68 2.631.455.613 1.063.92 1.824.92v-.001zm3.55.888c-.063-.211-.132-.48-.206-.808a9.666 9.666 0 0 1-.174-1.348c-.38.761-.856 1.363-1.427 1.807-.57.444-1.257.666-2.06.666-1.078 0-1.955-.407-2.632-1.22-.676-.814-1.014-1.95-1.014-3.408 0-1.712.454-3.006 1.363-3.883.909-.877 2.23-1.316 3.963-1.316h1.743v-1.997c0-1.226-.222-2.113-.666-2.663-.443-.55-1.11-.824-1.997-.824a4.072 4.072 0 0 0-3.36 1.743l-.412-1.426c.317-.423.798-.798 1.442-1.125.645-.328 1.422-.492 2.33-.492 1.332 0 2.351.375 3.06 1.126.707.75 1.061 1.917 1.061 3.502v8.718c0 .55.032 1.104.095 1.664.064.56.148.988.254 1.284h-1.363zm5.928 0h-1.49V7.023h1.49v7.513l5.357-7.513h1.458l-5.262 7.418L31.008 23h-1.649l-5.547-8.274V23zm13.155-.983c.508 0 .957-.084 1.348-.253.39-.17.723-.37.998-.603a3.5 3.5 0 0 0 .824-.856l.476 1.237c-.24.346-.542.647-.888.887-.296.233-.681.439-1.157.619-.475.18-1.02.269-1.632.269-1.607 0-2.848-.724-3.725-2.171-.877-1.448-1.316-3.482-1.316-6.103 0-2.641.434-4.691 1.3-6.15.866-1.458 2.124-2.187 3.772-2.187.825 0 1.522.143 2.093.428.57.285 1.035.64 1.394 1.062l-.412 1.585a5.7 5.7 0 0 0-1.3-1.268c-.507-.36-1.098-.539-1.775-.539-1.225 0-2.129.613-2.71 1.839s-.872 2.969-.872 5.23c0 2.198.285 3.91.856 5.136.57 1.225 1.48 1.838 2.726 1.838zm13.378-10.144a16.338 16.338 0 0 1 .127-2.187h-.096a7.95 7.95 0 0 1-.38 1.03c-.148.328-.306.671-.475 1.03L44.32 23h-1.267V7.023h1.395v11.095c.003.752-.04 1.503-.127 2.25h.095c.105-.358.232-.712.38-1.061s.307-.703.476-1.062l5.199-11.222h1.3V23h-1.427V11.873h.001z" fill="#000" fill-rule="evenodd"/></svg>