<svg width="30" height="30" viewBox="0 0 30 30" xmlns="http://www.w3.org/2000/svg"><g fill="none" fill-rule="evenodd"><rect fill="#AAA" width="30" height="30" rx="2"/><path d="M15.981 20.301s.36-.04.545-.242c.17-.185.165-.534.165-.534s-.025-1.63.72-1.87c.735-.238 1.676 1.575 2.675 2.272.756.528 1.33.413 1.33.413l2.671-.038s1.397-.088.734-1.205c-.054-.09-.385-.826-1.985-2.337-1.675-1.58-1.45-1.324.566-4.058 1.23-1.665 1.72-2.68 1.567-3.116-.147-.415-1.05-.305-1.05-.305L20.91 9.3s-.222-.031-.387.07c-.163.099-.265.328-.265.328s-.478 1.287-1.113 2.383c-1.337 2.313-1.874 2.435-2.092 2.29-.509-.334-.382-1.344-.382-2.06 0-2.241.334-3.175-.65-3.416-.328-.081-.568-.134-1.405-.143-1.072-.01-1.98.004-2.495.26-.342.17-.606.55-.445.572.2.027.65.123.888.453.307.427.296 1.384.296 1.384s.178 2.638-.412 2.964c-.407.225-.963-.234-2.157-2.331C9.682 10.98 9.22 9.79 9.22 9.79s-.088-.22-.248-.34c-.192-.144-.462-.189-.462-.189l-2.858.02s-.429.012-.586.2c-.14.17-.011.518-.011.518s2.237 5.322 4.771 8.004c2.322 2.458 4.96 2.297 4.96 2.297h1.196z" fill="#F3F1ED"/></g></svg>
