<svg width="73" height="27" viewBox="0 0 73 27" xmlns="http://www.w3.org/2000/svg"><title>yandex_ru</title><g fill="none" fill-rule="evenodd"><path d="M7.323 14.314L3.455 23H.634l4.248-9.288a6.042 6.042 0 0 1-2.41-2.235c-.612-.983-.919-2.32-.919-4.01 0-1.183.175-2.224.523-3.122.35-.899.825-1.644 1.427-2.235A5.865 5.865 0 0 1 5.61.778 7.277 7.277 0 0 1 8.147.334h3.645V23h-2.44v-8.686h-2.03.001zM9.352 2.395h-1.3c-.486 0-.962.09-1.427.27-.465.18-.877.464-1.236.855-.36.391-.65.91-.872 1.554-.222.644-.333 1.442-.333 2.393 0 .909.1 1.67.302 2.282.2.613.475 1.11.824 1.49.348.38.76.65 1.236.809.486.16.994.24 1.506.237h1.3v-9.89z" fill="#F00"/><path d="M36.265 26.138h-2.22V23H27.2v3.138h-2.22v-5.167h.983c.36-.845.645-1.78.856-2.805.212-1.025.375-2.082.492-3.17.116-1.089.19-2.198.221-3.329.032-1.13.048-2.224.048-3.28V7.022h7.418V20.97h1.268v5.167l-.001.001zm10.746-4.216a6.035 6.035 0 0 1-1.743.951c-.656.233-1.385.349-2.188.349-1.648 0-2.948-.64-3.899-1.918-.95-1.279-1.426-3.154-1.426-5.627 0-1.289.09-2.472.27-3.55.179-1.078.464-2.013.855-2.806.391-.792.893-1.41 1.506-1.854.613-.444 1.342-.666 2.187-.666.655 0 1.258.132 1.807.397.55.264 1.014.692 1.395 1.283.38.592.676 1.358.887 2.299.212.94.317 2.087.317 3.44v1.362h-6.657c0 1.818.249 3.191.745 4.121.497.93 1.242 1.395 2.235 1.395.698 0 1.316-.122 1.855-.365.539-.243.966-.48 1.284-.713l.57 1.902zM23.553 7.023V23h-2.44v-7.164h-3.678V23h-2.473V7.023h2.473v6.784h3.677V7.023h2.441zm28.435 8.02V23h-2.473V7.023h2.473v7.386l3.836-7.386h2.504l-3.962 7.513L58.899 23h-2.695l-4.216-7.957zM64.7 23.222c-1.712 0-3.054-.682-4.026-2.045s-1.458-3.418-1.458-6.165c0-1.247.121-2.378.364-3.392.243-1.015.602-1.876 1.078-2.584a5.082 5.082 0 0 1 1.775-1.648c.708-.391 1.527-.587 2.457-.587.718 0 1.3.08 1.743.238.444.159.846.354 1.205.586l-.349 2.346c-.36-.31-.76-.571-1.188-.776a3.245 3.245 0 0 0-1.443-.333c-.887 0-1.616.496-2.187 1.49-.57.993-.856 2.504-.856 4.533 0 2.007.238 3.555.713 4.644.476 1.088 1.22 1.632 2.235 1.632.613 0 1.141-.1 1.585-.3a4.686 4.686 0 0 0 1.11-.682l.57 1.838c-.422.36-.898.65-1.426.872-.529.222-1.163.333-1.902.333zM32.556 9.02h-2.758v.286c0 .845-.016 1.77-.048 2.773a43.73 43.73 0 0 1-.206 3.06 36.122 36.122 0 0 1-.443 3.058c-.174.948-.44 1.877-.793 2.774h4.248V9.02zm10.017-.19c-.76 0-1.3.428-1.617 1.284-.317.856-.517 2.002-.602 3.44h4.09c0-.677-.032-1.306-.096-1.887a7.57 7.57 0 0 0-.3-1.506c-.138-.422-.328-.75-.571-.982a1.256 1.256 0 0 0-.904-.349z" fill="#000"/></g></svg>